# xmcd
#
# Track frame offsets:
#   150
#   18445
#   41622
#   60747
#   83854
#   99719
#   119439
#   133944
#   150537
#   165597
#   188022
#   207235
#   231005
#   246325
#   265100
#   284518
#   301465
#   323485
#   345578
#
# Disc length: 4781 seconds
#
# Revision: 0
# Processed by: cddbd v1.5.2PL0 Copyright (c) Steve Scherf et al.
# Submitted via: GXTranscoder 2.0.1939
#
DISCID=0b12ab13
DTITLE=Celso Blues Boy - Coletânea
DYEAR=1900
DGENRE=Blues
TTITLE0=Quem Entende
TTITLE1=Sempre Brilhara
TTITLE2=Rock Fora da Lei
TTITLE3=Isso e Nada Mais
TTITLE4=Marginal
TTITLE5=Vem Buscar o Que Sobrou
TTITLE6=Filhos da Bomba
TTITLE7=Alyne
TTITLE8=D-Natural Blues
TTITLE9=Blues Motel
TTITLE10=Brilho da Noite
TTITLE11=Forasteiro
TTITLE12=Deixe Tudo Acontecer
TTITLE13=La Vem Ele Outra Vez
TTITLE14=Amor Vazio
TTITLE15=A Velha Musica
TTITLE16=Dry Blues Gin
TTITLE17=Nao Me Espere
TTITLE18=So Resta Um Blues
EXTD=
EXTT0=
EXTT1=
EXTT2=
EXTT3=
EXTT4=
EXTT5=
EXTT6=
EXTT7=
EXTT8=
EXTT9=
EXTT10=
EXTT11=
EXTT12=
EXTT13=
EXTT14=
EXTT15=
EXTT16=
EXTT17=
EXTT18=
PLAYORDER=
